<svg width="364" height="363" viewBox="0 0 364 363" fill="none" xmlns="http://www.w3.org/2000/svg">
<path fill-rule="evenodd" clip-rule="evenodd" d="M363.986 183.766C363.995 183.011 364 182.256 364 181.5C364 81.2603 282.516 0 182 0C96.6904 0 25.0898 58.5336 5.37841 137.525C6.88374 137.288 8.37875 137.08 9.86345 136.903C13.7189 136.462 17.4626 136.247 21.0944 136.26C24.7262 136.273 28.1274 136.496 31.2978 136.93C40.7298 138.221 47.7739 141.325 52.4301 146.242C57.1656 151.17 59.0071 157.478 57.9546 165.166L52.1934 207.254L25.9184 203.657L26.8731 196.682C25.3546 198.234 23.6047 199.515 21.6234 200.525C17.7204 202.494 12.9947 203.099 7.44643 202.34C5.09741 202.018 2.95405 201.503 1.01633 200.795C10.6769 291.963 88.0198 363 182 363C258.706 363 324.328 315.678 351.114 248.711C348.496 248.801 345.709 248.643 342.75 248.238C336.727 247.414 331.163 245.885 326.058 243.652C320.965 241.34 316.371 238.329 312.276 234.619L322.639 219.081C326.629 222.373 330.514 224.964 334.293 226.854C338.15 228.754 341.902 229.954 345.548 230.453C346.42 230.573 347.144 230.591 347.721 230.509C348.377 230.437 348.879 230.304 349.229 230.109C349.589 229.836 349.797 229.501 349.851 229.105C349.981 228.153 349.297 227.252 347.799 226.401C346.3 225.55 344.321 224.674 341.86 223.772C339.49 222.801 336.938 221.685 334.204 220.422C331.481 219.081 328.954 217.483 326.624 215.63C324.384 213.708 322.634 211.45 321.374 208.855C320.125 206.181 319.75 203.021 320.25 199.375C320.879 194.778 322.61 190.978 325.444 187.974C328.277 184.971 331.959 182.851 336.488 181.613C341.029 180.297 346.192 180.035 351.978 180.827C356.064 181.386 360.066 182.366 363.986 183.766ZM362.633 203.86C361.001 202.921 359.458 202.099 358.004 201.394C354.521 199.706 351.511 198.689 348.975 198.342C347.865 198.19 346.927 198.263 346.159 198.562C345.471 198.871 345.083 199.343 344.997 199.977C344.855 201.007 345.534 201.948 347.033 202.799C348.61 203.661 350.618 204.622 353.057 205.683C355.586 206.675 358.212 207.842 360.935 209.184C361.236 209.323 361.534 209.466 361.83 209.613C362.128 207.705 362.395 205.787 362.633 203.86ZM28.7665 182.851C27.9121 183.784 26.9551 184.581 25.8955 185.244C24.8467 185.827 23.7403 186.241 22.5764 186.485C21.4125 186.729 20.2361 186.77 19.0472 186.607C17.145 186.347 15.7492 185.631 14.8598 184.46C13.9705 183.288 13.6451 181.831 13.8838 180.087C14.1225 178.343 14.7771 177.101 15.8476 176.359C16.9973 175.628 18.4837 175.387 20.3067 175.637L29.5802 176.906L28.7665 182.851ZM31.2696 164.541C31.5101 162.349 30.8726 160.526 29.357 159.071C27.877 157.496 25.4725 156.481 22.1435 156.025C19.6864 155.689 16.6653 155.638 13.0802 155.874C9.49508 156.11 5.74766 156.647 1.83796 157.484L1.68728 156.682C1.38282 158.903 1.11863 161.136 0.895477 163.382C5.09592 162.018 10.2679 161.726 16.4114 162.507L31.2696 164.541ZM105.15 171.021C106.436 172.247 107.34 173.905 107.861 175.995L130.379 169.872C128.498 163.559 125.085 158.408 120.14 154.421C115.206 150.354 109.212 147.838 102.158 146.872C95.2622 145.928 89.0485 146.491 83.5168 148.559C77.9851 150.628 73.4454 154.004 69.8976 158.686C66.3498 163.368 64.1094 169.117 63.1763 175.934C62.2649 182.592 62.8545 188.607 64.9451 193.98C67.115 199.364 70.5464 203.791 75.2393 207.259C80.0224 210.659 85.8618 212.831 92.7575 213.775C100.208 214.795 106.845 214.089 112.669 211.656C118.572 209.234 123.108 205.293 126.278 199.833L106.007 186.884C104.957 189.243 103.683 190.885 102.183 191.811C100.684 192.736 98.9833 193.068 97.081 192.808C95.3373 192.569 93.8964 191.888 92.7585 190.763C91.6313 189.559 90.8359 187.996 90.3721 186.076C89.9083 184.155 89.8445 181.966 90.1809 179.509C90.5172 177.052 91.1614 175.001 92.1135 173.354C93.0764 171.629 94.257 170.378 95.6554 169.6C97.0646 168.743 98.6411 168.434 100.385 168.673C102.287 168.933 103.876 169.716 105.15 171.021ZM164.401 201.418C163.591 200.257 163.305 198.805 163.544 197.061L166.229 177.444L181.447 179.527L183.758 162.645L168.54 160.561L171.03 142.371L144.399 138.726L141.909 156.916L132.992 155.695L130.681 172.578L139.598 173.798L136.359 197.458C135.74 201.976 136.194 206.035 137.72 209.635C139.325 213.246 141.826 216.213 145.222 218.535C148.709 220.788 152.909 222.252 157.823 222.924C161.311 223.402 164.768 223.511 168.195 223.254C171.7 223.007 174.61 222.396 176.924 221.421L174.912 202.493C173.579 202.795 172.296 203.023 171.064 203.177C169.832 203.332 168.819 203.355 168.026 203.246C166.43 203.108 165.222 202.499 164.401 201.418ZM244.675 170.62C239.586 167.097 233.316 164.826 225.865 163.806C218.415 162.786 211.725 163.283 205.797 165.298C199.96 167.244 195.193 170.508 191.497 175.089C187.802 179.67 185.488 185.369 184.555 192.186C183.632 198.923 184.33 205.034 186.648 210.519C188.976 215.924 192.685 220.389 197.774 223.912C202.942 227.445 209.252 229.722 216.703 230.742C224.153 231.762 230.803 231.259 236.651 229.233C242.579 227.219 247.391 223.921 251.087 219.34C254.793 214.679 257.107 208.98 258.029 202.243C258.962 195.427 258.265 189.316 255.936 183.91C253.608 178.504 249.854 174.074 244.675 170.62ZM217.525 185.798C219.172 184.974 220.987 184.697 222.968 184.969C224.95 185.24 226.583 185.988 227.869 187.214C229.234 188.451 230.182 190.074 230.715 192.085C231.247 194.096 231.339 196.369 230.992 198.906C230.645 201.442 229.945 203.607 228.892 205.401C227.839 207.195 226.489 208.504 224.842 209.328C223.274 210.163 221.5 210.445 219.518 210.174C217.537 209.902 215.863 209.148 214.498 207.912C213.213 206.686 212.304 205.068 211.772 203.057C211.239 201.046 211.147 198.773 211.494 196.237C211.841 193.7 212.541 191.535 213.594 189.741C214.647 187.948 215.958 186.633 217.525 185.798ZM303.832 198.945C306.942 198.644 310.435 199.081 314.311 200.258L317.615 176.123C312.384 175.407 307.636 176.17 303.373 178.413C300.745 179.828 298.382 181.756 296.283 184.198L297.597 174.594L270.847 170.932L261.945 235.966L288.695 239.628L292.943 208.597C293.333 205.744 294.446 203.514 296.281 201.908C298.206 200.234 300.723 199.246 303.832 198.945Z" fill="url(#paint0_linear_89_24)"/>
<defs>
<linearGradient id="paint0_linear_89_24" x1="182" y1="0" x2="182" y2="363" gradientUnits="userSpaceOnUse">
<stop stop-color="#7B00FF"/>
<stop offset="1" stop-color="#5507FF"/>
</linearGradient>
</defs>
</svg>
