<svg width="639" height="639" viewBox="0 0 639 639" fill="none" xmlns="http://www.w3.org/2000/svg">
<path fill-rule="evenodd" clip-rule="evenodd" d="M319.5 639C495.955 639 639 495.955 639 319.5C639 309.397 638.531 299.404 637.614 289.54L614.521 295.728L611.896 285.932C610.767 288.234 609.424 290.37 607.867 292.34C603.504 297.977 597.57 301.802 590.065 303.813C581.011 306.239 572.53 306.277 564.623 303.927C556.834 301.545 550.072 297.036 544.336 290.402C538.568 283.648 534.311 275.148 531.566 264.903C528.853 254.777 528.294 245.542 529.888 237.198C531.483 228.854 535.014 221.779 540.481 215.973C546.035 210.016 553.22 205.856 562.036 203.494C569.779 201.419 577.009 201.717 583.725 204.386C586.285 205.333 588.724 206.575 591.044 208.11L578.993 163.135L595.633 158.677C540.239 63.7701 437.316 0 319.5 0C143.045 0 0 143.045 0 319.5C0 331.533 0.665197 343.411 1.96082 355.098L32.1724 347.003L36.0404 361.438C37.5655 356.713 39.7726 352.561 42.6616 348.98C47.3818 343.247 53.6732 339.327 61.5358 337.22L71.2558 373.495C65.0439 374.138 59.8181 375.602 55.5784 377.887C51.3387 380.173 48.351 383.08 46.6154 386.609C44.967 389.988 44.7173 393.821 45.8665 398.11L58.3636 444.75L28.9705 452.626C79.452 562.615 190.556 639 319.5 639ZM601.543 247.294C600.522 243.485 599.033 240.311 597.077 237.773C595.119 235.233 592.861 233.476 590.302 232.502C587.742 231.528 584.973 231.44 581.995 232.238C579.017 233.036 576.603 234.512 574.755 236.668C573.026 238.791 571.948 241.442 571.523 244.62C571.098 247.798 571.396 251.294 572.417 255.106C573.439 258.918 574.928 262.094 576.886 264.634C578.843 267.174 581.102 268.931 583.661 269.905C586.339 270.847 589.168 270.919 592.146 270.121C595.124 269.323 597.478 267.863 599.207 265.739C600.937 263.616 602.014 260.965 602.439 257.787C602.864 254.611 602.567 251.118 601.547 247.309C601.546 247.306 601.546 247.304 601.545 247.301C601.544 247.299 601.544 247.296 601.543 247.294ZM120.362 387.151C121.559 385.425 123.528 384.196 126.268 383.461L140.207 379.727L142.601 388.661C141.943 390.497 141.06 392.203 139.949 393.777C138.807 395.232 137.482 396.481 135.974 397.524C134.465 398.566 132.818 399.327 131.031 399.806C128.172 400.572 125.76 400.388 123.797 399.254C121.833 398.121 120.5 396.243 119.798 393.622C119.095 391.001 119.283 388.844 120.362 387.151ZM148.171 409.451L150.98 419.933L190.472 409.351L173.522 346.093C170.425 334.537 164.04 326.672 154.367 322.497C144.812 318.289 132.947 318.085 118.77 321.884C114.005 323.161 109.038 324.875 103.868 327.026C98.699 329.177 93.5063 331.718 88.2902 334.648C83.1932 337.545 78.1165 340.757 73.06 344.283L89.1771 368.693C94.2336 365.168 99.239 362.166 104.194 359.69C109.148 357.213 113.472 355.48 117.165 354.49C122.168 353.15 126.192 353.157 129.237 354.512C132.259 355.674 134.255 357.884 135.222 361.143L112.89 367.127C100.532 370.566 91.8231 375.709 86.7626 382.555C81.6702 389.283 80.4168 397.471 83.0024 407.121C84.6623 413.315 87.3656 418.401 91.1123 422.376C94.9462 426.201 99.6564 428.77 105.243 430.082C110.798 431.275 117.03 430.945 123.939 429.094C132.279 426.86 138.634 423.178 143.005 418.048C145.217 415.428 146.939 412.562 148.171 409.451ZM252.738 327.74C255.521 329.548 257.471 332.537 258.588 336.706L272.186 387.456L312.393 376.683L295.682 314.318C293.671 306.813 290.426 300.659 285.948 295.858C281.469 291.057 276.21 287.87 270.17 286.296C264.099 284.603 257.608 284.682 250.698 286.534C242.717 288.672 236.366 292.609 231.645 298.342C228.864 301.79 226.736 305.762 225.262 310.259L221.514 296.269L181.307 307.042L207.498 404.789L247.705 394.016L234.729 345.589C233.452 340.824 233.562 336.709 235.06 333.243C236.676 329.745 239.45 327.47 243.382 326.416C246.836 325.491 249.955 325.932 252.738 327.74ZM334.877 228.546L294.67 239.319L330.198 371.912L370.405 361.139L363.53 335.48L367.004 329.044L390.24 355.824L437.952 343.039L386.812 292.355L412.297 245.149L366.908 257.311L351.005 288.737L334.877 228.546ZM480.392 261.377C481.888 263.147 482.884 265.434 483.38 268.238L459.023 274.764C458.932 273.594 458.901 272.453 458.93 271.342C459.108 267.719 459.955 264.683 461.469 262.234C462.984 259.785 465.23 258.162 468.208 257.364C470.591 256.726 472.835 256.763 474.942 257.475C477.048 258.188 478.865 259.488 480.392 261.377ZM464.934 293.099L528.566 276.049C526.057 263.825 521.596 253.848 515.183 246.118C508.858 238.236 501.05 232.923 491.759 230.177C482.469 227.432 472.105 227.591 460.669 230.655C450.185 233.464 441.571 238.007 434.825 244.284C428.199 250.528 423.704 258.053 421.339 266.858C419.061 275.513 419.311 285.022 422.088 295.387C424.769 305.394 429.2 313.591 435.381 319.979C441.68 326.335 449.38 330.529 458.479 332.56C467.546 334.471 477.619 333.943 488.698 330.974C498.229 328.42 506.272 324.605 512.828 319.529C519.503 314.42 524.636 308.321 528.227 301.23L501.813 286.282C497.182 293.779 491.353 298.47 484.324 300.353C480.75 301.311 477.369 301.323 474.183 300.389C471.083 299.304 468.312 297.301 465.869 294.381C465.548 293.972 465.236 293.545 464.934 293.099Z" fill="url(#paint0_linear_89_22)"/>
<defs>
<linearGradient id="paint0_linear_89_22" x1="-28" y1="221.5" x2="319.5" y2="639" gradientUnits="userSpaceOnUse">
<stop stop-color="#13FF02"/>
<stop offset="1" stop-color="#00FFAA"/>
</linearGradient>
</defs>
</svg>
