<svg width="1440" height="482" viewBox="0 0 1440 482" fill="none" xmlns="http://www.w3.org/2000/svg">
<path d="M480.573 328.022C483.792 330.649 487.357 332.648 491.266 334.019C495.175 335.275 499.429 335.903 504.028 335.903C509.202 335.903 513.514 335.047 516.963 333.333C520.413 331.62 523 329.107 524.724 325.795C526.449 322.368 527.311 318.199 527.311 313.288C524.782 316.143 521.448 318.542 517.308 320.483C513.284 322.311 508.398 323.225 502.649 323.225C495.06 323.225 488.391 321.569 482.642 318.256C477.009 314.944 472.582 310.318 469.363 304.378C466.258 298.325 464.706 291.357 464.706 283.476C464.706 274.909 466.603 267.485 470.397 261.203C474.192 254.921 479.538 250.067 486.437 246.64C493.335 243.213 501.384 241.5 510.582 241.5C521.62 241.5 531.048 243.956 538.867 248.867C546.8 253.779 552.894 260.746 557.148 269.77C561.402 278.679 563.529 289.301 563.529 301.637C563.529 314.43 561.172 325.566 556.458 335.047C551.744 344.527 545.075 351.894 536.452 357.148C527.944 362.402 517.883 365.029 506.27 365.029C499.257 365.029 492.071 364.059 484.712 362.117C477.468 360.175 471.26 357.605 466.086 354.407L480.573 328.022ZM511.789 271.483C509.26 271.483 507.075 271.94 505.236 272.854C503.511 273.767 502.189 275.138 501.269 276.965C500.464 278.679 500.062 280.906 500.062 283.647C500.062 287.531 500.981 290.501 502.821 292.557C504.776 294.613 507.708 295.64 511.617 295.64C514.376 295.64 516.618 295.184 518.343 294.27C520.183 293.242 521.562 291.814 522.482 289.987C523.402 288.159 523.862 285.989 523.862 283.476C523.862 281.534 523.575 279.878 523 278.507C522.54 277.023 521.792 275.766 520.758 274.738C519.838 273.596 518.631 272.796 517.136 272.34C515.641 271.768 513.859 271.483 511.789 271.483Z" fill="white"/>
<path d="M610.054 241.5C621.209 241.5 629.773 244.83 635.746 251.491C641.719 258.152 644.706 267.708 644.706 280.161C644.706 292.686 641.719 302.314 635.746 309.048C629.773 315.781 621.209 319.147 610.054 319.147C598.827 319.147 590.227 315.781 584.254 309.048C578.281 302.314 575.294 292.722 575.294 280.269C575.294 267.744 578.281 258.152 584.254 251.491C590.227 244.83 598.827 241.5 610.054 241.5ZM610.054 259.744C606.671 259.744 604.297 261.229 602.929 264.197C601.634 267.165 600.986 272.523 600.986 280.269C600.986 287.943 601.634 293.301 602.929 296.342C604.297 299.382 606.671 300.903 610.054 300.903C613.436 300.903 615.775 299.382 617.071 296.342C618.366 293.301 619.014 287.943 619.014 280.269C619.014 272.523 618.366 267.165 617.071 264.197C615.775 261.229 613.436 259.744 610.054 259.744Z" fill="white"/>
<path d="M180 242.676H292.941V472.088H218.923V269.511L251.147 302.565H180V242.676Z" fill="white"/>
<path d="M328.506 371.695C333.335 375.648 338.682 378.656 344.546 380.718C350.41 382.609 356.791 383.554 363.69 383.554C371.451 383.554 377.918 382.265 383.092 379.687C388.266 377.109 392.147 373.328 394.734 368.343C397.321 363.187 398.614 356.914 398.614 349.523C394.82 353.82 389.818 357.429 383.609 360.351C377.573 363.101 370.243 364.476 361.62 364.476C350.237 364.476 340.234 361.984 331.611 357C323.16 352.015 316.52 345.054 311.691 336.117C307.034 327.008 304.706 316.523 304.706 304.664C304.706 291.773 307.552 280.601 313.243 271.148C318.934 261.695 326.954 254.391 337.302 249.234C347.65 244.078 359.723 241.5 373.52 241.5C390.077 241.5 404.219 245.195 415.947 252.586C427.847 259.977 436.988 270.461 443.369 284.039C449.751 297.445 452.941 313.43 452.941 331.992C452.941 351.242 449.406 368 442.334 382.265C435.263 396.531 425.26 407.617 412.325 415.523C399.563 423.429 384.472 427.382 367.053 427.382C356.532 427.382 345.753 425.921 334.715 423C323.85 420.078 314.536 416.211 306.775 411.398L328.506 371.695ZM375.331 286.617C371.537 286.617 368.26 287.305 365.5 288.68C362.913 290.055 360.93 292.117 359.55 294.867C358.343 297.445 357.739 300.797 357.739 304.922C357.739 310.765 359.119 315.234 361.879 318.328C364.811 321.422 369.208 322.969 375.072 322.969C379.212 322.969 382.575 322.281 385.162 320.906C387.921 319.359 389.991 317.211 391.37 314.461C392.75 311.711 393.44 308.445 393.44 304.664C393.44 301.742 393.009 299.25 392.147 297.187C391.457 294.953 390.336 293.062 388.783 291.515C387.404 289.797 385.593 288.594 383.351 287.906C381.109 287.047 378.435 286.617 375.331 286.617Z" fill="white"/>
<path d="M1251.56 123.572L1211.25 88.4763C1220.29 88.4763 1228.4 88.4763 1235.58 88.4763C1242.99 88.4763 1249.02 88.4763 1253.65 88.4763C1258.28 88.4763 1261.3 88.4763 1262.69 88.4763C1282.38 88.4763 1299.53 91.4878 1314.12 97.5108C1328.72 103.534 1339.96 112.105 1347.84 123.224C1355.95 134.112 1360 146.969 1360 161.795C1360 179.169 1355.71 194.342 1347.14 207.315C1338.57 220.056 1326.52 230.017 1311 237.198C1295.7 244.379 1277.52 247.97 1256.43 247.97C1239.05 247.97 1221.21 245.074 1202.91 239.283C1184.84 233.26 1168.96 225.5 1155.29 216.002L1184.14 160.752C1193.64 168.629 1203.72 175.346 1214.38 180.906C1225.04 186.234 1235.93 188.898 1247.05 188.898C1255.85 188.898 1262.34 187.045 1266.51 183.339C1270.91 179.632 1273.11 174.42 1273.11 167.702C1273.11 160.984 1270.91 155.888 1266.51 152.413C1262.34 148.938 1255.74 147.201 1246.7 147.201C1243.92 147.201 1239.52 147.201 1233.49 147.201C1227.47 147.201 1220.75 147.201 1213.33 147.201C1206.15 147.201 1199.32 147.201 1192.83 147.201C1186.34 147.201 1181.36 147.201 1177.88 147.201V0.911133H1348.53V62.7627H1216.46L1251.56 27.6672V123.572Z" fill="white"/>
<path d="M1063.18 143.657C1067.03 139.648 1070.27 135.552 1072.9 131.369C1075.7 127.186 1077.1 123.526 1077.1 120.389C1077.1 117.251 1075.96 114.898 1073.69 113.33C1071.59 111.587 1068.52 110.715 1064.5 110.715C1057.49 110.715 1049.62 112.894 1040.86 117.251C1032.11 121.434 1023.27 127.099 1014.35 134.245L991.765 90.5846C1004.89 81.6957 1018.28 74.724 1031.94 69.6696C1045.59 64.6151 1059.59 62.0879 1073.95 62.0879C1086.73 62.0879 1098.1 64.1794 1108.08 68.3624C1118.24 72.3711 1126.2 78.1227 1131.98 85.6173C1137.93 92.9376 1140.9 101.565 1140.9 111.5C1140.9 122.131 1137.4 132.589 1130.4 142.872C1123.57 152.981 1115 163.177 1104.67 173.46L1057.41 219.996L1049.79 201.434H1143.53V247.97H999.117L998.854 209.8L1063.18 143.657Z" fill="white"/>
<path d="M925.379 126.794C942.962 126.794 956.461 131.991 965.877 142.386C975.292 152.781 980 167.695 980 187.128C980 206.674 975.292 221.701 965.877 232.209C956.461 242.717 942.962 247.97 925.379 247.97C907.683 247.97 894.127 242.717 884.711 232.209C875.296 221.701 870.588 206.731 870.588 187.297C870.588 167.751 875.296 152.781 884.711 142.386C894.127 131.991 907.683 126.794 925.379 126.794ZM925.379 155.266C920.048 155.266 916.304 157.582 914.149 162.215C912.107 166.847 911.086 175.208 911.086 187.297C911.086 199.274 912.107 207.635 914.149 212.38C916.304 217.126 920.048 219.498 925.379 219.498C930.711 219.498 934.398 217.126 936.439 212.38C938.481 207.635 939.502 199.274 939.502 187.297C939.502 175.208 938.481 166.847 936.439 162.215C934.398 157.582 930.711 155.266 925.379 155.266Z" fill="white"/>
<path d="M825.19 203.736C826.802 202.036 828.158 200.299 829.257 198.525C830.429 196.751 831.016 195.199 831.016 193.869C831.016 192.539 830.539 191.541 829.587 190.876C828.708 190.137 827.425 189.767 825.74 189.767C822.809 189.767 819.512 190.691 815.848 192.539C812.184 194.312 808.484 196.714 804.747 199.745L795.294 181.231C800.79 177.461 806.395 174.505 812.111 172.362C817.826 170.218 823.688 169.146 829.697 169.146C835.046 169.146 839.809 170.033 843.985 171.807C848.235 173.507 851.569 175.946 853.987 179.124C856.479 182.228 857.724 185.887 857.724 190.1C857.724 194.608 856.259 199.043 853.328 203.403C850.47 207.69 846.88 212.013 842.556 216.374L822.772 236.108L819.585 228.236H858.824V247.97H798.372L798.262 231.784L825.19 203.736Z" fill="white"/>
</svg>
