<svg width="530" height="530" viewBox="0 0 530 530" fill="none" xmlns="http://www.w3.org/2000/svg">
<path fill-rule="evenodd" clip-rule="evenodd" d="M525.158 315.686C528.336 299.28 530 282.334 530 265C530 118.645 411.355 0 265 0C194.21 0 129.904 27.7568 82.3696 72.9807C86.2528 72.1238 90.2101 71.6495 94.2416 71.5577C106.555 71.2305 118.774 74.5669 130.898 81.5669C138.536 85.9769 145.615 91.3568 152.133 97.7067C158.773 104.127 163.745 110.635 167.05 117.231L135.603 136.418C133.818 131.669 131.249 127.438 127.897 123.725C124.615 119.89 120.488 116.537 115.517 113.667C110.183 110.587 105.172 108.906 100.484 108.625C95.7969 108.344 91.494 109.497 87.5753 112.084C83.7266 114.55 80.2973 118.39 77.2873 123.603C81.8259 122.182 86.777 121.727 92.1405 122.237C97.504 122.747 103.217 124.752 109.279 128.252C117.402 132.942 123.42 138.76 127.33 145.706C131.363 152.722 133.195 160.328 132.829 168.522C132.584 176.787 130.046 185.102 125.216 193.468C119.966 202.561 113.32 209.313 105.278 213.722C97.4268 218.081 88.814 219.979 79.4394 219.416C70.186 218.923 60.7096 215.877 51.0101 210.277C39.3707 203.557 30.8731 195.175 25.5173 185.132C22.2498 179.004 20.1733 172.481 19.2879 165.563C6.84977 196.268 0 229.834 0 265C0 411.355 118.645 530 265 530C345.451 530 417.528 494.15 466.129 437.553C453.761 438.189 440.819 434.606 427.303 426.802C408.389 415.882 397.156 401.879 393.602 384.794C390.049 367.708 394.293 348.738 406.333 327.885C418.443 306.909 432.749 293.75 449.252 288.405C465.756 283.061 483.464 285.849 502.378 296.769C511.932 302.284 519.525 308.59 525.158 315.686ZM74.9843 149.432C77.5542 149.461 80.2335 150.281 83.0221 151.891C87.1443 154.27 89.6061 157.147 90.4072 160.519C91.2083 163.891 90.4189 167.639 88.0389 171.761C86.4289 174.55 84.5789 176.634 82.489 178.014C80.399 179.394 78.1647 180.044 75.7861 179.964C73.4074 179.884 70.8238 179.039 68.0352 177.429C65.8528 176.169 64.1135 174.841 62.8174 173.446C61.5912 171.93 60.7475 170.311 60.2863 168.59C60.0164 166.817 60.0333 164.968 60.3371 163.042C60.7621 161.186 61.5346 159.288 62.6546 157.348C64.2646 154.559 66.0796 152.536 68.0995 151.277C70.1895 149.897 72.4844 149.282 74.9843 149.432ZM281.32 191.449C277.697 174.485 266.489 160.578 247.696 149.728C228.782 138.808 211.073 136.02 194.57 141.364C178.067 146.709 163.76 159.868 151.65 180.844C139.61 201.697 135.367 220.667 138.92 237.753C142.473 254.838 153.707 268.841 172.621 279.761C191.414 290.611 209.097 293.303 225.67 287.838C242.243 282.372 256.585 269.152 268.695 248.177C280.735 227.323 284.943 208.414 281.32 191.449ZM213.748 180.807C218.921 177.166 224.357 176.991 230.056 180.281C235.754 183.571 238.26 188.331 237.572 194.562C236.884 200.793 232.796 210.395 225.306 223.368C217.886 236.22 211.614 244.562 206.492 248.395C201.37 252.227 195.959 252.498 190.261 249.208C184.562 245.918 182.031 241.062 182.668 234.64C183.425 228.287 187.514 218.685 194.934 205.833C202.424 192.86 208.695 184.518 213.748 180.807ZM408.661 264.97C405.038 248.005 393.83 234.098 375.037 223.248C356.123 212.328 338.414 209.54 321.911 214.885C305.408 220.229 291.101 233.389 278.991 254.364C266.951 275.218 262.708 294.188 266.261 311.273C269.814 328.359 281.048 342.362 299.962 353.282C318.755 364.132 336.438 366.824 353.011 361.358C369.584 355.893 383.926 342.672 396.036 321.697C408.076 300.843 412.284 281.934 408.661 264.97ZM341.089 254.328C346.263 250.687 351.699 250.511 357.397 253.801C363.095 257.091 365.601 261.852 364.913 268.083C364.226 274.314 360.137 283.916 352.647 296.889C345.227 309.741 338.956 318.083 333.833 321.915C328.711 325.747 323.3 326.018 317.602 322.728C311.904 319.438 309.373 314.582 310.009 308.16C310.767 301.808 314.855 292.206 322.275 279.354C329.765 266.381 336.037 258.039 341.089 254.328ZM468.43 327.848C473.604 324.207 479.04 324.032 484.738 327.322C490.437 330.612 492.942 335.372 492.255 341.603C491.567 347.834 487.478 357.436 479.988 370.41C472.568 383.261 466.297 391.603 461.175 395.436C456.052 399.268 450.642 399.539 444.943 396.249C439.245 392.959 436.714 388.103 437.35 381.681C438.108 375.328 442.197 365.726 449.617 352.875C457.107 339.901 463.378 331.559 468.43 327.848Z" fill="url(#paint0_linear_89_23)"/>
<defs>
<linearGradient id="paint0_linear_89_23" x1="324.5" y1="217" x2="265" y2="530" gradientUnits="userSpaceOnUse">
<stop stop-color="#FF004D"/>
<stop offset="1" stop-color="#FF008C"/>
</linearGradient>
</defs>
</svg>
